<?xml version="1.0" standalone="no"?>
<!DOCTYPE svg PUBLIC "-//W3C//DTD SVG 20010904//EN"
 "http://www.w3.org/TR/2001/REC-SVG-20010904/DTD/svg10.dtd">
<svg version="1.0" xmlns="http://www.w3.org/2000/svg"
 width="2048.000000pt" height="1700.000000pt" viewBox="0 0 2048.000000 1700.000000"
 preserveAspectRatio="xMidYMid meet">
<metadata>
Created by potrace 1.16, written by Peter Selinger 2001-2019
</metadata>
<g transform="translate(0.000000,1700.000000) scale(0.100000,-0.100000)"
fill="#000000" stroke="none">
<path d="M9755 16679 c54 -91 122 -168 330 -374 234 -232 244 -243 286 -329
l44 -89 0 -111 c-1 -103 -3 -118 -36 -203 -74 -190 -206 -359 -444 -571 -208
-183 -420 -387 -493 -472 -327 -382 -420 -817 -275 -1285 34 -112 131 -303
208 -410 140 -196 355 -393 524 -480 l34 -17 -21 34 c-194 317 -316 632 -353
905 -18 137 -7 338 25 446 67 227 177 367 546 696 96 85 210 192 254 236 261
266 413 535 462 816 22 129 15 326 -16 424 -50 157 -144 297 -268 395 -112 89
-219 143 -515 261 -53 21 -139 60 -190 86 -116 60 -111 58 -102 42z"/>
<path d="M9149 15725 c75 -118 106 -260 81 -366 -41 -175 -168 -335 -540 -676
-297 -273 -386 -375 -470 -543 -71 -141 -110 -308 -110 -471 0 -365 218 -759
542 -980 l57 -39 -59 87 c-218 324 -324 662 -292 932 13 109 50 237 92 321 55
107 133 202 343 417 245 251 313 328 395 451 115 169 169 305 179 447 7 98 -7
166 -50 254 -32 65 -128 175 -175 200 -21 11 -20 9 7 -34z"/>
<path d="M11443 15105 c-7 -41 -26 -108 -43 -149 -66 -159 -171 -274 -474
-519 -339 -275 -465 -421 -545 -637 -57 -155 -72 -368 -37 -535 64 -299 274
-595 541 -761 l30 -19 -19 30 c-167 257 -262 473 -302 682 -20 107 -15 307 10
398 26 95 98 233 163 315 33 41 139 155 235 252 176 177 287 301 347 391 52
76 107 205 126 291 20 89 16 235 -7 299 l-13 37 -12 -75z"/>
<path d="M6353 11835 c-131 -41 -241 -155 -294 -305 -20 -57 -23 -83 -22 -200
2 -216 52 -603 119 -922 185 -887 560 -1683 1093 -2323 119 -144 425 -443 566
-555 472 -374 990 -609 1519 -690 805 -122 1591 77 2291 581 200 144 472 387
595 531 l55 65 116 6 c401 22 831 206 1229 526 130 105 341 315 442 441 340
424 519 906 479 1290 -53 502 -391 800 -910 800 -90 0 -102 2 -97 16 14 37 19
330 6 384 -40 172 -161 311 -309 354 -49 14 -376 16 -3445 15 -2775 0 -3399
-3 -3433 -14z m6817 -280 c35 -18 73 -67 89 -114 20 -62 8 -269 -35 -584 -9
-65 -14 -120 -12 -122 1 -2 66 10 143 26 190 39 304 46 425 25 307 -54 481
-271 483 -601 1 -354 -191 -765 -536 -1146 -195 -215 -482 -436 -726 -559
-247 -124 -535 -189 -749 -169 l-87 8 -45 -52 c-344 -398 -684 -672 -1089
-876 -319 -161 -642 -257 -985 -292 -170 -17 -506 -7 -666 20 -484 82 -933
286 -1360 617 -154 119 -490 455 -624 624 -495 622 -843 1419 -1000 2285 -50
273 -94 694 -80 758 14 66 69 144 114 160 8 3 1522 6 3363 6 2956 1 3351 -1
3377 -14z"/>
<path d="M13425 10546 c-92 -17 -247 -64 -261 -79 -7 -7 -22 -57 -34 -112 -34
-151 -112 -423 -168 -580 -141 -399 -276 -677 -522 -1077 -71 -115 -125 -208
-121 -208 29 0 440 117 514 146 459 182 931 615 1143 1049 84 173 107 263 108
420 0 112 -3 138 -22 185 -48 118 -133 196 -263 241 -80 28 -267 35 -374 15z
m271 -281 c29 -8 62 -28 79 -45 29 -30 30 -35 29 -123 -1 -74 -6 -107 -28
-167 -113 -306 -381 -621 -730 -859 -49 -33 -91 -59 -93 -57 -2 2 20 52 48
112 140 301 275 670 355 976 l39 148 50 10 c28 5 59 12 70 14 47 9 135 5 181
-9z"/>
<path d="M12227 10472 c-36 -39 -15 -105 38 -118 67 -17 109 70 59 120 -21 22
-77 20 -97 -2z"/>
<path d="M12634 10132 c-15 -10 -34 -47 -34 -67 0 -25 46 -65 75 -65 54 0 84
69 49 118 -15 22 -66 30 -90 14z"/>
<path d="M12477 9542 c-17 -19 -22 -68 -9 -88 4 -6 18 -17 30 -23 53 -28 119
38 91 91 -6 12 -17 26 -23 30 -21 14 -73 8 -89 -10z"/>
<path d="M11832 9384 c-28 -20 -31 -83 -4 -107 25 -23 75 -21 97 3 57 63 -23
153 -93 104z"/>
<path d="M11771 8764 c-27 -35 -26 -59 4 -89 47 -48 115 -19 115 48 0 66 -78
93 -119 41z"/>
<path d="M11123 8680 c-71 -29 -47 -130 30 -130 66 0 93 78 41 119 -29 23 -38
24 -71 11z"/>
<path d="M10415 8345 c-48 -47 -19 -115 48 -115 66 0 93 78 41 119 -35 27 -59
26 -89 -4z"/>
<path d="M11105 8345 c-48 -47 -19 -115 48 -115 66 0 93 78 41 119 -35 27 -59
26 -89 -4z"/>
<path d="M11544 8162 c-15 -10 -34 -47 -34 -67 0 -24 46 -65 73 -65 57 0 91
92 45 124 -24 17 -65 21 -84 8z"/>
<path d="M9232 8060 c-12 -5 -27 -21 -32 -36 -19 -50 11 -94 64 -94 40 0 66
26 66 66 0 35 -8 47 -37 63 -25 13 -30 13 -61 1z"/>
<path d="M10517 7962 c-23 -25 -21 -78 3 -102 52 -52 136 7 109 77 -6 15 -16
31 -22 35 -22 14 -74 8 -90 -10z"/>
<path d="M10880 7910 c-28 -28 -27 -84 2 -104 34 -24 73 -20 97 10 27 35 26
59 -4 89 -29 30 -68 32 -95 5z"/>
<path d="M8700 7793 c-41 -15 -55 -87 -22 -116 25 -23 75 -21 97 3 50 55 -6
138 -75 113z"/>
<path d="M9800 7720 c-59 -59 27 -152 93 -100 33 26 37 78 9 103 -25 23 -78
21 -102 -3z"/>
<path d="M10356 7478 c-9 -12 -16 -33 -16 -46 0 -29 42 -72 70 -72 28 0 70 43
70 72 0 42 -27 68 -70 68 -29 0 -43 -6 -54 -22z"/>
<path d="M9387 7432 c-23 -25 -22 -85 1 -105 26 -23 75 -21 97 3 41 46 10 120
-50 120 -18 0 -39 -8 -48 -18z"/>
<path d="M9872 7384 c-16 -11 -22 -25 -22 -54 0 -47 21 -70 64 -70 41 0 66 26
66 68 0 60 -59 91 -108 56z"/>
<path d="M10425 6005 c-317 -58 -601 -266 -759 -555 -47 -86 -102 -255 -117
-358 -16 -114 -6 -324 20 -428 103 -413 438 -730 854 -809 103 -19 293 -19
397 1 101 19 220 61 309 110 75 41 184 119 221 158 l24 27 -149 149 c-83 83
-154 150 -158 150 -5 0 -28 -16 -50 -36 -52 -44 -163 -99 -242 -119 -74 -19
-210 -22 -290 -6 -33 7 -102 32 -152 57 -157 75 -283 221 -336 389 -18 58 -22
92 -21 200 0 120 3 136 31 211 73 193 208 329 401 402 60 23 82 26 202 27 167
0 241 -21 362 -102 l81 -54 49 48 c27 26 95 97 151 157 l101 108 -44 38 c-127
108 -307 195 -477 229 -117 24 -296 27 -408 6z"/>
<path d="M12550 5626 c-85 -182 -176 -378 -203 -436 -333 -711 -617 -1323
-617 -1330 0 -6 8 -10 18 -10 9 0 109 -9 221 -20 113 -11 208 -17 212 -13 5 5
67 134 139 288 72 154 134 283 138 286 8 8 648 -53 657 -62 3 -4 42 -145 86
-315 44 -169 81 -309 82 -309 4 -3 452 -43 454 -41 2 2 -569 2239 -574 2245
-1 2 -89 12 -195 22 -106 10 -209 20 -228 22 l-36 5 -154 -332z m390 -595 c33
-129 58 -236 55 -239 -5 -6 -325 25 -332 31 -2 3 37 94 87 204 111 238 122
261 126 248 2 -5 31 -115 64 -244z"/>
<path d="M7125 5750 c-297 -42 -579 -83 -627 -90 -70 -9 -88 -16 -88 -29 -1
-14 292 -2143 295 -2148 1 -2 1286 178 1292 181 2 1 -58 430 -60 433 -1 1
-195 -26 -430 -59 -236 -33 -430 -58 -432 -56 -2 2 -17 97 -33 212 -19 142
-25 209 -18 212 6 2 200 31 430 64 231 33 420 61 421 62 4 5 -56 422 -60 427
-3 2 -197 -23 -432 -56 -236 -33 -429 -60 -430 -59 -4 3 -60 421 -56 425 2 3
196 32 431 66 343 49 427 64 425 76 -1 7 -14 105 -29 217 -22 169 -29 202 -43
201 -9 -1 -259 -36 -556 -79z"/>
<path d="M14549 5738 c-8 -28 -445 -2134 -443 -2137 3 -4 417 -92 419 -89 2 2
42 192 90 423 48 231 89 422 91 424 2 3 194 -36 427 -85 232 -50 423 -90 424
-89 7 4 90 426 84 429 -3 2 -194 43 -423 92 -359 75 -418 90 -418 105 0 19 79
401 83 406 2 1 194 -38 427 -87 233 -50 424 -89 426 -87 2 2 91 427 89 427 -3
0 -1230 260 -1252 265 -13 3 -23 4 -24 3z"/>
<path d="M5665 5509 c-71 -16 -162 -36 -201 -44 l-70 -16 88 -417 c48 -229 88
-422 88 -428 0 -5 -164 -45 -365 -88 -200 -43 -373 -80 -383 -83 -17 -4 -27
36 -108 421 -82 391 -91 426 -109 425 -11 0 -105 -19 -210 -42 -188 -42 -190
-42 -187 -67 8 -57 440 -2102 446 -2107 5 -5 406 75 415 83 2 2 -36 193 -84
424 -49 231 -85 423 -82 427 7 7 721 163 748 163 11 0 18 -11 22 -32 8 -44
169 -813 171 -815 2 -2 420 87 421 90 1 1 -80 389 -180 862 -99 473 -201 953
-225 1068 -25 120 -48 207 -54 206 -6 0 -69 -14 -141 -30z"/>
<path d="M16421 5157 c-27 -84 -74 -228 -105 -322 -193 -597 -311 -962 -408
-1259 -60 -186 -106 -342 -101 -346 4 -5 278 -97 608 -205 330 -109 605 -200
611 -202 8 -3 37 73 78 200 36 113 66 208 66 210 0 3 -186 67 -414 141 l-413
136 65 203 c35 111 66 204 68 206 2 2 759 -242 818 -265 9 -3 100 251 141 393
6 21 -13 28 -408 158 l-415 135 54 168 c30 92 59 184 66 205 6 20 14 37 19 37
4 0 191 -61 415 -134 225 -74 409 -134 410 -133 2 2 105 320 128 394 7 21 -16
29 -526 197 -293 97 -572 189 -620 205 l-87 29 -50 -151z"/>
<path d="M2865 4814 c-390 -117 -740 -223 -776 -234 l-66 -20 59 -202 c33
-112 63 -206 66 -210 4 -4 135 32 291 78 156 47 287 82 291 77 4 -4 116 -379
249 -833 133 -454 244 -826 245 -827 3 -3 408 117 414 121 1 2 -57 203 -129
447 -72 244 -182 619 -245 833 -74 251 -111 392 -104 396 6 3 135 44 288 89
152 46 278 84 279 85 2 1 -24 94 -57 207 -33 112 -60 205 -60 206 0 10 -114
-22 -745 -213z"/>
<path d="M9815 3164 c-825 -34 -1403 -84 -2105 -180 -1355 -186 -2763 -523
-3925 -941 -192 -69 -521 -197 -544 -212 -10 -7 1 -40 54 -162 36 -85 70 -158
74 -162 5 -4 55 11 112 33 1253 501 2933 917 4491 1115 1222 154 2468 195
3663 120 1878 -119 3728 -532 5345 -1195 96 -40 184 -74 195 -77 18 -4 28 16
87 158 37 90 66 165 64 167 -9 9 -396 163 -621 247 -1540 576 -3191 929 -4900
1050 -460 32 -598 36 -1245 39 -366 2 -701 2 -745 0z"/>
<path d="M6875 1752 c-173 -60 -280 -244 -245 -425 25 -137 131 -256 257 -293
112 -33 261 -5 343 64 l25 21 -52 52 -51 52 -53 -27 c-153 -76 -323 28 -323
199 0 129 97 225 227 225 42 0 101 -22 130 -47 17 -16 21 -14 74 39 l56 56
-43 31 c-96 69 -236 91 -345 53z"/>
<path d="M7550 1754 c-111 -29 -208 -119 -250 -231 -18 -47 -21 -74 -18 -148
3 -78 7 -100 36 -157 112 -227 415 -276 595 -96 72 72 101 142 105 253 3 74 0
101 -18 148 -43 115 -138 201 -255 232 -72 18 -123 18 -195 -1z m200 -164 c76
-39 120 -113 120 -200 0 -191 -217 -295 -359 -173 -57 48 -83 103 -83 173 0
168 174 275 322 200z"/>
<path d="M8097 1623 c-4 -75 -7 -243 -7 -375 l0 -238 75 0 75 0 0 150 0 150
149 0 148 0 7 46 c3 26 6 60 6 75 l0 28 -152 3 -153 3 -3 73 -3 72 156 0 155
0 0 75 0 75 -223 0 -224 0 -6 -137z"/>
<path d="M8617 1533 c-4 -124 -7 -295 -7 -380 l0 -153 75 0 74 0 3 153 3 152
150 0 150 0 0 75 0 75 -152 3 -153 3 0 37 c0 20 3 54 6 75 l7 37 148 0 149 0
0 75 0 75 -223 0 -224 0 -6 -227z"/>
<path d="M9140 1637 c0 -68 -3 -239 -7 -380 l-6 -257 226 0 227 0 0 53 c0 28
3 62 6 74 6 22 6 22 -147 25 l-154 3 -3 73 -3 72 156 0 155 0 0 75 0 75 -150
0 -150 0 0 75 0 75 150 0 150 0 0 73 0 74 -152 6 c-83 4 -184 7 -225 7 l-73 0
0 -123z"/>
<path d="M9657 1378 c-3 -205 -5 -374 -3 -375 1 -2 104 -4 227 -5 l224 -3 3
71 3 71 -47 7 c-26 3 -96 6 -156 6 l-109 0 3 73 3 72 153 3 152 3 0 74 0 75
-150 0 -150 0 0 75 0 75 150 0 150 0 0 75 0 75 -223 0 -224 0 -6 -372z"/>
<path d="M10770 1665 l0 -75 105 0 105 0 0 -300 0 -300 59 0 c33 0 66 -3 75
-6 14 -6 16 25 16 300 l0 306 105 0 105 0 0 75 0 75 -285 0 -285 0 0 -75z"/>
<path d="M11683 1730 c-75 -16 -132 -48 -192 -107 -79 -79 -105 -146 -106
-268 0 -82 3 -96 33 -157 41 -84 100 -143 182 -182 58 -28 75 -31 155 -31 80
0 97 3 157 32 84 40 141 97 181 181 29 61 32 76 32 162 0 86 -3 101 -33 162
-74 153 -249 242 -409 208z m166 -169 c79 -41 131 -125 131 -211 0 -41 -32
-115 -63 -149 -32 -34 -115 -71 -162 -71 -47 0 -130 37 -162 71 -56 61 -76
156 -49 231 44 122 194 185 305 129z"/>
<path d="M12770 1714 c-113 -30 -208 -118 -250 -231 -31 -83 -26 -214 12 -295
51 -110 154 -187 280 -211 201 -37 412 123 426 324 l4 59 -186 0 -186 0 0 -75
0 -75 88 0 87 -1 -38 -34 c-136 -120 -357 -15 -357 170 0 178 174 284 328 200
l53 -29 49 49 c28 27 50 53 50 57 0 17 -109 78 -165 93 -72 18 -123 18 -195
-1z"/>
<path d="M13570 1702 c-76 -29 -105 -49 -158 -107 -68 -74 -94 -145 -94 -250
-1 -218 155 -375 372 -375 102 0 172 25 241 87 97 88 134 177 127 308 -8 146
-86 263 -216 323 -74 34 -203 41 -272 14z m183 -143 c49 -13 115 -73 138 -124
43 -93 7 -220 -78 -279 -50 -35 -137 -46 -198 -26 -108 36 -174 164 -141 273
20 67 57 111 118 141 56 28 100 32 161 15z"/>
</g>
</svg>
